<?xml version="1.0" standalone="no"?>
<!DOCTYPE svg PUBLIC "-//W3C//DTD SVG 20010904//EN"
 "http://www.w3.org/TR/2001/REC-SVG-20010904/DTD/svg10.dtd">
<svg version="1.0" xmlns="http://www.w3.org/2000/svg"
 width="1168.000000pt" height="1168.000000pt" viewBox="0 0 1168.000000 1168.000000"
 preserveAspectRatio="xMidYMid meet">
<metadata>
Created by potrace 1.14, written by Peter Selinger 2001-2017
</metadata>
<g transform="translate(0.000000,1168.000000) scale(0.100000,-0.100000)"
fill="#000000" stroke="none">
<path d="M8706 10163 c-4 -4 -74 -12 -246 -28 -30 -3 -75 -7 -100 -10 -25 -3
-67 -8 -95 -10 -27 -3 -63 -7 -80 -10 -16 -2 -57 -7 -90 -10 -33 -3 -80 -8
-105 -11 -48 -6 -78 -9 -175 -18 -33 -4 -76 -8 -95 -11 -19 -2 -64 -7 -100
-10 -36 -4 -76 -8 -90 -10 -61 -9 -176 -18 -189 -16 -11 2 -12 -12 -7 -79 4
-45 9 -90 11 -99 2 -10 4 -38 6 -62 1 -24 6 -52 11 -61 5 -10 4 -19 -2 -23 -6
-4 -8 -10 -5 -15 6 -10 15 -71 24 -156 1 -11 29 -11 121 0 19 3 68 8 109 11
41 4 82 8 91 10 9 2 49 6 88 10 83 7 78 12 87 -90 5 -68 9 -105 20 -190 3 -22
8 -69 10 -105 3 -36 8 -76 11 -90 3 -14 7 -44 9 -67 5 -56 15 -142 22 -178 2
-16 6 -52 8 -80 1 -27 3 -50 5 -50 2 0 6 -29 15 -115 3 -36 8 -78 11 -95 2
-16 6 -55 8 -85 2 -30 7 -66 10 -80 3 -14 8 -52 12 -85 7 -70 14 -130 19 -165
2 -14 6 -50 9 -80 4 -30 8 -71 11 -90 6 -46 16 -135 21 -185 2 -22 8 -74 13
-115 6 -41 13 -95 16 -120 3 -25 7 -63 9 -85 2 -22 4 -40 5 -40 1 0 4 -27 6
-60 4 -53 11 -117 20 -180 1 -11 3 -28 4 -38 1 -17 8 -18 74 -13 40 4 84 8 97
10 26 4 91 12 195 22 33 4 71 8 85 9 14 2 31 3 38 4 11 1 12 18 7 79 -3 42 -8
88 -10 102 -2 14 -7 52 -10 85 -3 33 -8 78 -10 100 -13 104 -15 123 -20 165
-8 69 -14 120 -21 175 -4 28 -7 65 -8 83 0 17 -3 32 -6 32 -3 0 -5 12 -5 28
-1 30 -12 137 -20 192 -3 19 -7 53 -10 75 -2 22 -6 58 -9 80 -3 22 -7 65 -10
95 -3 30 -8 73 -11 95 -8 69 -16 129 -20 160 -2 17 -7 55 -10 85 -3 30 -8 71
-11 90 -3 19 -5 45 -5 57 0 12 -4 34 -9 48 -7 19 -7 24 2 19 6 -4 8 -3 4 4 -3
6 -11 46 -16 89 -5 43 -13 101 -16 128 -4 28 -7 67 -7 88 -1 20 -4 37 -7 37
-3 0 -5 12 -6 28 0 15 -4 56 -8 92 -3 36 -9 90 -12 120 -3 30 -8 58 -10 62 -7
11 12 18 63 23 104 10 159 16 188 20 17 2 57 7 90 10 33 4 74 8 90 10 17 2 36
4 43 4 8 1 10 6 6 13 -4 7 -9 33 -11 58 -2 44 -11 115 -13 115 0 0 -3 23 -5
50 -2 28 -7 75 -10 105 -9 77 -13 112 -14 131 -1 13 -11 17 -41 16 -22 -1 -42
-2 -44 -4z"/>
<path d="M2389 10046 c-6 -6 -2 -2519 4 -2523 7 -4 466 -5 625 0 39 1 72 -1
72 -5 0 -3 8 -4 18 -2 25 7 222 10 222 4 0 -3 49 -4 110 -2 l110 3 0 52 c1 29
1 122 2 207 l1 155 -107 5 c-59 3 -115 2 -124 -1 -9 -4 -21 -4 -25 -2 -7 4
-171 7 -192 3 -5 -1 -14 -1 -20 0 -5 1 -51 1 -102 1 l-91 -2 -1 323 c0 178 3
328 7 334 5 8 67 11 203 10 l197 -1 1 213 1 212 -47 1 c-27 1 -119 1 -205 1
l-157 0 0 284 c0 274 1 284 20 285 32 1 89 1 97 -1 7 -2 64 -1 130 1 18 1 36
-1 38 -4 3 -3 18 -2 32 2 15 4 38 5 52 1 14 -4 37 -3 52 1 15 4 30 4 33 -1 3
-5 15 -6 29 0 12 4 29 5 36 0 7 -5 23 -5 34 0 12 4 30 4 40 0 11 -3 30 -5 42
-2 l23 4 0 223 0 222 -580 0 c-318 0 -580 0 -580 -1z"/>
<path d="M4079 9804 c-4 -55 -8 -86 -13 -125 -3 -25 -9 -77 -11 -115 -3 -38
-8 -80 -10 -94 -2 -14 -7 -56 -10 -95 -3 -38 -8 -86 -10 -105 -2 -19 -7 -60
-10 -90 -3 -30 -8 -73 -10 -95 -2 -22 -7 -69 -10 -105 -3 -36 -8 -81 -11 -100
-3 -19 -7 -57 -9 -85 -10 -113 -15 -161 -19 -185 -3 -14 -8 -61 -11 -105 -3
-44 -8 -93 -10 -110 -3 -16 -7 -57 -10 -90 -10 -94 -15 -141 -20 -192 -6 -48
-9 -78 -19 -183 -8 -93 -17 -174 -21 -200 -5 -31 -14 -127 -20 -201 -2 -30 -5
-54 -5 -54 -1 0 -3 -16 -5 -36 -1 -19 -5 -60 -9 -90 -3 -30 -8 -81 -11 -114
-3 -33 -7 -76 -10 -95 -3 -19 -8 -62 -11 -94 -3 -33 -7 -63 -10 -67 -6 -10 16
-23 41 -25 101 -9 156 -14 190 -18 22 -3 67 -8 100 -11 33 -3 83 -8 110 -11
121 -13 115 -13 116 10 0 11 2 34 4 49 2 16 6 56 9 90 4 34 8 80 11 102 2 22
7 67 11 100 6 61 8 77 19 195 3 36 8 82 10 103 11 89 14 116 21 178 3 37 8 82
10 100 1 19 6 66 9 104 3 39 8 79 10 90 2 11 4 35 4 54 l1 33 83 -7 c45 -4 91
-9 102 -11 65 -12 188 -14 225 -3 51 16 58 25 65 85 3 27 7 60 10 74 7 40 14
100 20 177 3 40 8 82 10 93 4 19 -23 43 -42 38 -9 -2 -146 12 -178 18 -11 2
-51 6 -90 9 -135 10 -162 16 -150 35 3 4 8 37 11 72 3 34 7 79 10 98 2 19 6
62 9 95 3 33 7 76 10 95 7 56 18 162 21 200 1 19 2 38 3 42 1 6 97 3 156 -6
38 -6 158 -18 210 -22 22 -1 40 -3 40 -4 0 -2 43 -7 126 -14 107 -10 174 -18
181 -22 14 -9 19 16 34 176 8 97 13 144 18 180 12 87 15 146 8 155 -7 10 -74
18 -159 19 -24 1 -43 3 -43 6 0 3 -10 5 -22 6 -24 1 -137 11 -203 19 -22 2
-65 7 -95 10 -30 3 -71 7 -90 10 -40 5 -146 15 -205 20 -22 1 -65 6 -95 9 -30
4 -80 9 -110 12 -30 3 -71 7 -90 10 -115 13 -160 15 -161 8z"/>
<path d="M698 9625 c-2 -2 -41 -6 -88 -10 -110 -9 -173 -16 -265 -31 -16 -3
-46 -7 -65 -9 -52 -6 -98 -13 -128 -19 -15 -3 -47 -8 -72 -12 -25 -3 -52 -7
-60 -9 -9 -1 -14 -12 -14 -26 2 -31 18 -171 28 -244 3 -16 8 -52 11 -80 4 -27
8 -61 10 -75 6 -41 17 -123 21 -155 2 -16 5 -43 8 -60 2 -16 7 -57 10 -89 3
-33 8 -67 11 -75 2 -9 7 -38 10 -66 10 -87 16 -139 21 -165 3 -14 7 -47 10
-75 4 -46 30 -239 41 -310 2 -16 6 -43 7 -60 9 -87 18 -161 21 -165 2 -3 7
-35 10 -70 4 -36 9 -76 11 -90 2 -14 6 -47 9 -75 3 -27 10 -63 15 -78 5 -15 5
-25 0 -22 -5 3 -5 -9 0 -27 5 -18 11 -53 14 -78 7 -58 12 -100 31 -235 8 -60
17 -132 20 -160 3 -27 7 -60 9 -72 3 -12 7 -49 11 -82 3 -33 8 -70 11 -83 2
-13 6 -43 9 -68 3 -25 8 -63 11 -85 18 -127 26 -190 27 -203 0 -14 2 -14 157
7 80 12 109 15 205 26 33 4 68 9 79 11 10 2 44 6 75 10 31 3 74 9 96 13 l40 6
-4 44 c-1 24 -5 54 -7 65 -5 22 -10 63 -19 136 -2 25 -7 61 -10 80 -2 19 -7
55 -10 80 -4 25 -8 56 -10 70 -5 39 -17 132 -21 165 -2 17 -6 48 -9 70 -3 22
-8 58 -10 80 -2 22 -6 54 -9 70 -17 109 -17 112 -4 113 7 0 44 12 81 26 l68
26 39 -63 c152 -243 348 -468 546 -626 43 -35 89 -72 102 -82 12 -10 24 -19
27 -19 8 0 100 -64 103 -72 2 -4 8 -8 13 -8 5 0 39 -18 75 -40 36 -22 69 -40
73 -40 7 0 319 414 327 433 2 7 -35 54 -83 104 -48 50 -164 171 -258 268 -93
98 -215 223 -270 280 -136 139 -133 135 -143 182 -12 51 3 87 66 158 25 28 49
60 55 73 6 12 13 22 16 22 4 0 15 17 26 38 11 20 22 39 25 42 5 5 42 80 45 90
1 3 8 21 17 41 13 30 35 106 55 193 19 84 21 345 3 431 -19 95 -66 221 -90
245 -3 3 -12 18 -20 35 -30 60 -212 225 -247 225 -6 0 -13 4 -15 8 -4 9 -122
62 -163 73 -16 4 -55 14 -85 23 -55 15 -98 23 -155 31 -16 2 -48 7 -70 10 -38
6 -401 15 -407 10z m411 -585 c258 -257 284 -293 285 -397 0 -53 -4 -69 -30
-105 -49 -70 -130 -99 -215 -77 -24 7 -71 39 -91 63 -15 17 -19 19 -27 7 -5
-8 -5 -21 -1 -30 5 -9 25 -50 46 -92 20 -42 46 -87 58 -100 12 -13 32 -38 44
-55 21 -30 21 -32 3 -37 -11 -2 -37 -1 -60 3 -41 7 -86 6 -128 -5 -13 -3 -33
-7 -45 -10 -12 -2 -26 -9 -32 -15 -14 -14 -46 -13 -46 3 0 6 12 35 25 62 29
56 53 133 60 191 3 21 8 46 11 56 9 30 -18 31 -42 2 -13 -16 -23 -34 -24 -40
0 -17 -97 -65 -128 -65 -26 1 -71 7 -82 11 -3 1 -8 2 -11 2 -14 -2 -90 79
-100 105 -11 29 -13 102 -5 143 7 30 52 118 112 217 24 40 44 77 44 82 0 5 3
11 8 13 4 2 25 32 47 68 21 36 59 93 83 128 l44 63 26 -23 c14 -13 91 -88 171
-168z"/>
<path d="M9816 9563 c-1 -1 -27 -5 -57 -9 -29 -3 -65 -8 -79 -10 -14 -3 -47
-7 -75 -9 -27 -3 -63 -7 -80 -10 -62 -9 -151 -19 -177 -20 -16 0 -28 -2 -28
-5 0 -3 -24 -7 -53 -9 -60 -4 -102 -8 -102 -11 0 -1 -16 -3 -35 -5 -42 -4
-116 -13 -162 -20 -18 -3 -55 -7 -81 -10 -66 -6 -70 -10 -62 -64 4 -25 9 -66
11 -91 1 -25 5 -56 8 -70 3 -14 7 -52 10 -85 3 -33 7 -69 9 -80 5 -21 18 -121
23 -165 1 -14 5 -52 9 -85 4 -33 9 -69 10 -80 1 -11 3 -20 4 -20 1 0 4 -18 6
-40 3 -44 11 -114 21 -185 3 -25 7 -56 9 -70 2 -14 4 -25 5 -25 0 0 3 -20 5
-45 5 -51 11 -104 20 -170 4 -25 8 -58 10 -75 2 -16 7 -52 10 -80 4 -27 9 -68
11 -90 2 -22 6 -53 8 -70 10 -72 16 -123 21 -160 4 -42 14 -115 20 -152 4 -28
14 -45 23 -39 4 2 36 7 72 11 36 4 72 8 80 10 8 1 42 6 75 10 62 7 81 10 150
19 22 2 63 7 90 11 28 3 66 8 85 10 66 9 105 14 153 20 26 3 68 7 95 10 60 7
94 12 157 21 28 5 54 7 59 6 12 -4 37 19 31 28 -2 4 -7 31 -10 61 -3 30 -7 65
-9 79 -2 14 -7 52 -11 85 -9 72 -10 75 -35 70 -10 -2 -46 -6 -79 -10 -33 -3
-70 -8 -82 -10 -12 -3 -46 -7 -74 -10 -29 -2 -69 -7 -89 -10 -54 -8 -95 -13
-161 -21 -33 -3 -68 -8 -77 -10 -13 -2 -18 4 -19 19 0 12 -2 31 -4 42 -2 11
-6 40 -9 65 -12 107 -17 147 -21 170 -6 33 -19 158 -19 190 -1 27 -4 26 169
45 22 2 58 7 81 10 22 3 56 8 75 9 31 2 34 6 33 32 -2 31 -10 115 -18 174 -3
19 -7 53 -10 74 -5 37 -24 63 -36 48 -3 -4 -16 -7 -30 -7 -14 0 -65 -5 -115
-12 -184 -26 -201 -26 -201 -6 0 10 -4 43 -8 73 -4 30 -10 72 -12 93 -1 21 -6
55 -9 75 -4 21 -8 57 -10 82 -3 25 -7 55 -10 66 -4 19 1 23 33 29 20 4 48 9
62 10 41 4 192 23 255 32 22 3 54 6 70 8 135 13 188 23 181 33 -6 9 -16 87
-31 242 -9 82 -12 88 -46 86 -17 0 -32 -2 -33 -3z"/>
<path d="M10917 9444 c-1 -1 -18 -5 -37 -8 -171 -28 -332 -114 -444 -237 -25
-28 -58 -72 -73 -97 -15 -26 -31 -48 -35 -50 -4 -2 -8 -8 -8 -13 0 -6 -11 -35
-25 -65 -55 -121 -79 -243 -80 -404 0 -139 10 -206 50 -327 14 -42 78 -184 96
-213 5 -8 13 -24 18 -36 8 -19 118 -209 141 -244 6 -8 16 -26 23 -40 6 -14 36
-65 65 -115 60 -103 102 -224 102 -296 0 -53 -30 -153 -58 -198 -54 -83 -110
-117 -180 -108 -100 13 -162 62 -329 264 l-76 92 -31 -22 c-17 -12 -36 -26
-43 -32 -36 -30 -43 -35 -48 -35 -4 0 -25 -15 -48 -33 -23 -18 -52 -40 -64
-48 -70 -46 -180 -128 -191 -142 -26 -31 108 -246 228 -362 78 -76 74 -72 145
-121 137 -95 275 -152 405 -170 67 -9 174 -9 189 0 6 4 14 5 19 2 4 -2 34 2
67 11 33 8 67 16 75 17 8 1 53 20 100 43 140 68 232 150 325 289 45 66 107
183 110 204 0 3 7 16 15 30 7 14 12 25 11 25 -2 0 2 19 8 42 39 146 31 407
-16 523 -4 8 -7 17 -8 20 -11 31 -27 66 -90 195 -66 134 -109 215 -172 326
-94 164 -170 319 -195 394 -24 74 -27 110 -16 155 31 120 90 164 204 153 70
-6 146 -53 231 -141 l32 -33 20 20 c12 12 24 21 27 21 3 0 19 10 34 23 16 12
78 58 139 102 117 85 146 122 150 188 2 41 -15 77 -68 147 -37 48 -150 160
-162 160 -4 0 -14 6 -21 13 -44 42 -210 107 -313 122 -44 7 -194 13 -198 9z"/>
<path d="M7367 9343 c-2 -1 -92 -11 -173 -19 -27 -2 -60 -6 -74 -8 -14 -1 -44
-4 -68 -4 l-43 -2 5 -67 c2 -38 5 -68 6 -68 0 0 3 -25 5 -55 7 -77 15 -152 19
-175 3 -11 5 -30 5 -43 1 -13 5 -21 9 -18 5 3 37 7 73 11 35 3 78 8 94 10 17
3 57 7 90 11 33 3 83 8 110 11 28 3 58 5 69 4 17 0 18 6 12 82 -4 45 -9 91
-11 102 -2 11 -7 49 -10 85 -3 36 -8 84 -11 108 l-6 43 -50 -3 c-27 -2 -50 -4
-51 -5z"/>
<path d="M6007 9303 c-1 -1 -70 -5 -152 -8 -83 -4 -169 -8 -193 -10 -23 -1
-44 -4 -46 -6 -5 -5 -7 -15 -36 -177 -6 -31 -12 -68 -15 -82 -3 -14 -8 -41
-11 -60 -3 -19 -7 -42 -9 -50 -2 -8 -7 -31 -10 -50 -3 -19 -10 -57 -15 -85 -5
-27 -12 -61 -14 -75 -3 -14 -10 -52 -17 -85 -6 -33 -13 -69 -14 -80 -1 -11 -3
-20 -5 -20 -1 0 -3 -11 -4 -25 -4 -33 -16 -101 -21 -120 -3 -8 -7 -32 -11 -54
-3 -21 -8 -48 -10 -60 -11 -58 -27 -143 -30 -161 -1 -11 -9 -56 -18 -100 -8
-44 -18 -96 -21 -115 -3 -19 -10 -53 -15 -75 -5 -22 -11 -56 -14 -75 -7 -44
-14 -82 -26 -145 -5 -27 -11 -61 -14 -75 -2 -14 -7 -36 -10 -50 -3 -14 -8 -41
-11 -60 -2 -19 -6 -46 -9 -60 -3 -14 -10 -50 -16 -80 -6 -30 -12 -66 -15 -80
-3 -14 -8 -41 -11 -60 -5 -36 -10 -66 -20 -110 -2 -14 -7 -43 -10 -64 -3 -22
-6 -44 -7 -50 -1 -5 12 -9 28 -9 67 2 399 19 420 22 6 0 11 10 12 22 1 11 7
44 12 72 6 29 13 63 15 77 7 36 24 130 31 165 3 17 8 44 10 60 3 17 7 41 10
55 3 14 8 41 12 60 4 19 7 38 8 42 1 16 20 23 63 24 55 2 270 12 390 19 78 4
84 3 113 -23 24 -22 36 -47 60 -137 16 -60 31 -119 33 -130 3 -11 19 -67 36
-125 32 -109 38 -131 39 -141 1 -3 20 -4 44 -3 38 3 259 13 364 17 37 1 42 4
39 22 -5 24 -70 267 -92 341 -8 28 -16 60 -19 70 -5 23 -69 248 -90 318 -8 26
-15 56 -15 65 0 10 -3 21 -7 25 -4 3 -8 12 -9 19 -9 45 -51 198 -70 254 -7 23
-16 52 -18 65 -10 46 -44 172 -54 198 -3 8 -7 22 -8 30 -4 22 -10 43 -17 60
-4 8 -15 49 -26 90 -11 41 -36 134 -56 205 -20 72 -38 137 -40 145 -8 32 -66
239 -87 307 -12 39 -31 84 -44 100 -22 28 -23 28 -139 28 -64 0 -117 -1 -118
-2z m-13 -615 c8 -29 20 -73 26 -98 6 -25 15 -56 20 -70 5 -14 12 -36 14 -50
3 -14 17 -65 31 -115 14 -49 27 -99 30 -110 2 -11 9 -36 15 -55 6 -19 13 -45
16 -56 2 -12 15 -58 28 -103 13 -45 20 -83 17 -85 -4 -3 -21 -3 -39 -2 -17 1
-32 0 -32 -3 0 -3 -35 -7 -78 -7 -42 -1 -111 -3 -152 -4 -41 -1 -74 1 -73 6 1
5 4 29 8 54 3 25 8 52 10 60 2 8 7 31 10 50 3 19 8 42 10 50 2 8 6 35 9 60 3
25 8 56 11 70 3 14 8 39 10 55 3 17 12 68 21 115 9 46 18 100 21 120 3 19 6
42 7 50 21 139 35 155 60 68z"/>
<path d="M7519 8776 c-2 -3 -31 -7 -64 -10 -33 -3 -76 -8 -95 -10 -19 -2 -71
-7 -115 -11 -44 -4 -89 -9 -100 -11 -11 -1 -33 -3 -48 -3 -28 -1 -28 -1 -22
-53 3 -29 8 -79 10 -111 3 -32 7 -70 10 -85 3 -15 8 -61 11 -102 9 -116 13
-155 14 -155 4 0 8 -36 15 -119 4 -50 8 -97 10 -105 1 -9 6 -51 10 -94 3 -43
8 -88 10 -100 2 -12 6 -51 10 -87 3 -36 8 -85 11 -110 2 -25 6 -67 9 -95 2
-27 6 -72 10 -100 8 -71 14 -126 20 -192 13 -130 14 -144 20 -153 6 -9 82 -6
155 6 19 3 55 7 80 9 25 2 72 7 105 11 33 3 72 7 88 7 33 1 32 -1 23 97 -4 36
-9 88 -11 115 -3 28 -7 66 -9 85 -2 19 -7 64 -10 100 -4 36 -9 81 -11 101 -3
20 -7 65 -10 100 -2 35 -7 78 -9 94 -3 17 -8 55 -10 85 -8 79 -16 159 -20 205
-2 22 -7 63 -10 90 -4 28 -8 70 -10 95 -3 25 -7 74 -11 110 -4 36 -8 79 -10
95 -7 66 -17 162 -21 195 -3 19 -4 46 -4 58 0 26 -13 56 -21 48z"/>
<path d="M7115 6643 c-187 -43 -300 -207 -290 -421 4 -88 4 -87 32 -159 3 -10
7 -20 8 -23 12 -36 82 -142 122 -185 39 -43 103 -123 103 -129 0 -4 9 -17 21
-29 11 -12 33 -48 48 -79 29 -58 32 -99 11 -138 -27 -51 -126 -61 -200 -21
-25 14 -33 20 -82 66 -15 14 -31 25 -35 25 -13 0 -183 -176 -183 -189 0 -6 5
-11 10 -11 6 0 10 -5 10 -11 0 -16 87 -101 140 -136 52 -34 137 -69 195 -80
57 -10 58 -10 78 -1 11 6 17 5 17 -2 0 -6 4 -9 8 -6 5 3 23 8 40 11 17 3 41 9
54 14 13 5 25 8 28 8 12 -3 99 65 133 102 86 95 128 247 106 380 -13 76 -16
87 -39 132 -19 37 -112 173 -130 189 -3 3 -21 25 -40 50 -19 25 -37 47 -40 50
-3 3 -25 31 -48 63 -53 71 -74 119 -68 155 2 15 5 30 5 34 1 4 11 16 23 28 32
30 85 26 141 -10 26 -16 53 -30 59 -30 21 0 149 140 154 169 8 36 -15 72 -74
116 -89 69 -207 94 -317 68z"/>
<path d="M5930 6568 c-19 -5 -43 -10 -54 -13 -10 -2 -24 -9 -30 -15 -7 -5 -15
-8 -17 -5 -10 9 -105 -73 -151 -129 -42 -53 -118 -190 -118 -215 0 -5 -5 -22
-12 -38 -13 -32 -14 -36 -23 -82 -3 -19 -8 -38 -10 -42 -10 -15 -19 -139 -19
-239 1 -105 12 -259 20 -271 2 -4 6 -24 10 -45 13 -81 71 -224 126 -310 49
-76 164 -155 250 -172 97 -19 288 7 288 39 0 5 7 9 15 9 19 0 29 8 103 78 30
28 51 52 47 52 -4 0 -1 8 8 18 23 25 50 94 80 202 39 141 52 241 51 395 -1 80
-10 240 -14 240 -1 0 -4 14 -6 30 -4 27 -9 52 -21 93 -1 6 -5 20 -7 30 -3 9
-5 18 -6 20 -2 1 -3 5 -5 10 -32 116 -133 256 -220 308 -88 51 -200 72 -285
52z m140 -298 c75 -53 110 -147 136 -360 6 -51 6 -229 -1 -270 -3 -19 -8 -48
-10 -64 -2 -16 -12 -54 -21 -85 -36 -124 -81 -192 -141 -212 -73 -24 -129 20
-174 136 -16 42 -29 84 -29 94 0 10 -3 21 -7 25 -4 3 -8 12 -9 19 -1 7 -5 30
-9 52 -15 91 -21 268 -11 320 2 11 7 43 10 70 17 124 35 171 93 242 51 64 113
76 173 33z"/>
<path d="M5115 6528 c-27 -4 -72 -10 -100 -13 -54 -6 -84 -30 -86 -69 -2 -37
-7 -99 -14 -161 -3 -33 -8 -82 -10 -110 -20 -245 -23 -274 -31 -287 -5 -7 -3
-8 6 -3 9 5 11 4 6 -4 -5 -7 -10 -33 -12 -59 -2 -26 -7 -78 -10 -117 -4 -38
-7 -80 -6 -93 0 -13 -5 -21 -12 -19 -6 2 -11 8 -11 13 0 5 -3 14 -7 20 -4 6
-9 21 -12 35 -4 25 -61 200 -75 234 -5 11 -48 142 -97 292 l-88 272 -45 -5
c-25 -2 -59 -6 -76 -8 -16 -3 -57 -8 -90 -11 -33 -4 -62 -9 -64 -11 -5 -4 90
-286 102 -301 5 -7 7 -13 4 -13 -4 0 5 -30 19 -67 14 -38 27 -75 29 -83 3 -12
168 -496 188 -550 15 -39 87 -253 87 -256 0 -5 109 5 131 11 8 3 49 7 90 10
128 8 149 18 155 73 9 93 16 162 19 199 2 23 6 65 10 94 4 28 8 75 10 102 2
28 7 72 10 97 3 25 7 69 10 97 3 29 7 67 9 85 2 18 7 67 11 108 3 41 8 86 10
100 4 25 13 112 20 193 2 23 4 42 5 42 1 0 8 73 13 144 2 29 -15 32 -98 19z"/>
<path d="M2684 5836 c-3 -14 -3 -30 1 -35 3 -6 2 -11 -2 -11 -5 0 -10 -10 -11
-22 -4 -45 -17 -135 -25 -183 -3 -16 -8 -48 -12 -70 -3 -23 -7 -50 -9 -62 -3
-12 -7 -43 -11 -70 -4 -26 -9 -59 -11 -73 -2 -14 -11 -70 -20 -125 -8 -55 -17
-111 -20 -125 -3 -14 -7 -41 -9 -60 -2 -19 -11 -78 -19 -130 -9 -52 -18 -113
-21 -135 -3 -22 -8 -51 -10 -65 -3 -14 -7 -38 -9 -55 -10 -66 -16 -101 -20
-124 -3 -12 -8 -42 -10 -65 -3 -22 -8 -54 -12 -71 -3 -16 -7 -43 -9 -60 -2
-16 -11 -73 -20 -125 -9 -52 -18 -111 -20 -130 -2 -19 -6 -46 -9 -60 -3 -14
-7 -41 -10 -60 -25 -158 -80 -354 -127 -455 -22 -46 -71 -105 -88 -105 -6 0
-11 -4 -11 -9 0 -5 -15 -13 -32 -17 -94 -21 -176 -1 -229 58 -59 64 -73 135
-72 351 0 119 -2 137 -16 138 -9 0 -27 2 -41 5 -14 2 -56 9 -95 15 -38 6 -81
13 -95 15 -14 2 -41 6 -60 9 -19 3 -46 7 -60 10 -14 3 -47 8 -75 11 -27 3 -54
7 -59 8 -10 1 -12 -7 -21 -120 -9 -110 -11 -456 -3 -506 21 -127 111 -289 222
-396 99 -96 253 -176 376 -197 62 -10 85 -14 110 -20 32 -7 208 -7 240 0 14 3
41 8 60 11 84 14 216 91 295 171 69 70 175 220 175 248 0 7 3 15 8 17 9 4 45
79 72 150 20 54 29 87 35 133 2 11 4 20 5 20 1 0 3 9 5 20 3 26 53 301 61 340
3 17 7 44 8 61 2 17 5 35 9 40 4 8 17 93 20 132 0 6 4 12 9 12 5 0 7 4 4 9 -3
4 1 42 8 82 8 41 17 92 20 114 4 23 8 52 11 65 4 22 17 89 30 162 2 13 6 40 9
60 2 21 6 41 9 45 3 4 8 32 11 62 4 29 8 56 10 60 2 3 7 26 10 51 6 47 11 75
21 123 11 57 14 73 19 107 3 19 8 46 10 60 3 14 17 93 31 175 14 83 28 164 31
180 3 17 7 41 10 55 2 14 9 50 14 80 37 206 37 205 -52 220 -40 6 -86 14 -103
17 -16 2 -41 6 -55 8 -14 2 -54 8 -90 14 -36 6 -83 13 -105 16 -22 3 -51 8
-65 10 -110 17 -109 17 -116 -9z"/>
<path d="M9864 5761 c-2 -3 -97 -5 -212 -6 -210 -2 -272 -8 -272 -27 0 -6 -3
-9 -6 -5 -7 6 -20 -3 -66 -47 -34 -33 -68 -102 -73 -149 -2 -18 -4 -32 -5 -32
-1 0 -3 -7 -5 -16 -13 -70 -59 -223 -130 -434 l-83 -250 -31 68 c-17 37 -31
69 -31 72 0 4 -56 129 -71 157 -5 10 -9 25 -9 33 0 8 -4 15 -10 15 -5 0 -10 6
-10 13 0 8 -6 27 -14 43 -8 16 -24 52 -36 79 -12 28 -34 75 -47 105 -14 30
-35 75 -46 100 -11 25 -20 48 -19 53 1 4 -3 7 -8 7 -5 0 -10 7 -10 17 0 9 -15
35 -32 59 -49 65 -84 75 -255 72 -79 -2 -143 -5 -143 -8 0 -3 -24 -6 -53 -7
-204 -6 -217 -7 -217 -20 0 -7 4 -21 10 -31 25 -44 190 -395 190 -403 0 -5 5
-9 10 -9 6 0 10 -5 10 -11 0 -6 44 -101 99 -212 229 -470 265 -546 261 -556
-1 -2 2 -7 7 -10 5 -3 31 -55 58 -116 43 -97 49 -118 49 -180 1 -41 -7 -92
-17 -125 -26 -78 -107 -302 -117 -320 -4 -9 -11 -30 -14 -48 -4 -17 -12 -34
-17 -37 -5 -4 -9 -12 -9 -20 0 -8 -5 -26 -12 -42 -6 -15 -12 -30 -13 -33 -1
-3 -5 -12 -8 -20 -4 -8 -16 -40 -26 -70 -23 -64 -28 -77 -121 -320 -39 -102
-72 -189 -73 -195 -3 -10 -17 -47 -77 -202 -17 -44 -32 -87 -34 -95 -1 -7 -4
-17 -7 -23 -8 -13 -28 -76 -34 -104 l-4 -23 112 6 c62 4 153 9 202 12 50 3
140 7 200 8 162 4 192 25 241 173 15 43 58 164 96 268 38 105 70 195 71 200 1
6 4 12 7 15 5 5 38 92 44 115 3 10 7 20 22 60 4 11 6 23 6 28 -1 4 2 7 8 7 5
0 10 -4 10 -8 0 -4 27 -60 61 -123 33 -62 61 -118 62 -124 1 -5 5 -12 8 -15 3
-3 25 -43 49 -90 39 -78 116 -224 171 -327 26 -50 75 -102 104 -113 26 -10
293 -2 545 17 41 3 83 5 93 5 10 -1 17 2 15 6 -2 4 -12 25 -22 47 -41 91 -353
704 -388 763 -11 17 -16 32 -11 32 4 0 3 4 -2 8 -6 4 -39 63 -74 131 -126 248
-146 286 -151 291 -3 3 -33 61 -67 130 -56 112 -66 142 -77 214 -4 30 18 123
46 196 37 93 41 104 44 115 1 6 19 53 39 105 20 52 38 103 40 114 3 10 9 23
14 30 5 6 10 14 10 18 6 39 15 68 21 68 3 0 7 6 7 13 1 6 22 71 48 142 26 72
51 141 55 155 5 14 25 70 45 125 58 160 86 237 102 285 8 25 17 52 20 60 3 8
7 20 9 25 2 6 12 37 24 69 11 33 20 61 20 63 0 5 -90 -1 -96 -6z"/>
<path d="M3656 4788 c-5 -12 -12 -88 -21 -218 -5 -77 -15 -196 -21 -256 -5
-52 -10 -118 -19 -239 -5 -73 -12 -155 -20 -240 -3 -27 -7 -79 -10 -115 -3
-36 -7 -85 -9 -110 -2 -25 -7 -85 -11 -135 -3 -49 -8 -103 -10 -120 -3 -16 -7
-68 -10 -115 -3 -47 -8 -101 -10 -120 -3 -33 -10 -112 -21 -260 -3 -36 -7 -85
-9 -110 -3 -25 -7 -79 -10 -120 -3 -41 -7 -93 -9 -115 -7 -63 -20 -224 -30
-369 -3 -38 -8 -92 -10 -120 -12 -130 -19 -212 -19 -226 0 -40 -2 -39 120 -43
29 -1 53 -4 53 -7 0 -3 24 -6 53 -6 54 -1 196 -12 257 -19 19 -2 69 -7 110
-10 41 -3 93 -8 115 -10 22 -2 83 -7 135 -11 52 -3 111 -8 130 -10 19 -2 66
-5 104 -8 38 -2 101 -8 140 -12 136 -13 145 -13 144 5 0 14 4 77 17 216 2 28
7 83 10 123 3 41 8 91 10 113 3 26 0 39 -8 40 -7 1 -23 2 -37 4 -14 1 -63 5
-110 9 -81 6 -161 13 -260 21 -25 2 -65 6 -90 8 -25 3 -90 8 -145 12 -55 4
-103 9 -107 11 -3 2 -5 28 -2 57 5 63 13 164 19 232 3 28 7 79 10 115 2 36 7
92 10 125 3 33 8 89 11 125 5 64 11 118 13 132 0 4 13 5 29 3 32 -6 94 -11
248 -21 99 -6 115 -4 157 14 26 12 47 25 48 29 1 4 2 19 4 33 2 14 6 50 9 80
4 30 8 73 11 95 2 22 7 83 11 135 3 52 7 99 7 104 3 12 -47 19 -233 31 -261
18 -255 17 -253 46 1 13 4 62 7 109 3 47 8 108 11 135 3 28 7 77 10 110 3 33
8 96 11 140 4 44 8 91 9 105 2 14 3 30 4 37 1 8 14 11 39 8 39 -4 173 -15 244
-20 24 -1 76 -6 117 -10 41 -4 100 -8 130 -10 108 -7 206 -16 224 -21 10 -3
18 0 18 8 1 7 3 31 5 53 2 22 6 67 9 100 5 66 10 130 20 245 3 41 8 90 10 108
4 28 2 32 -18 33 -12 1 -31 3 -42 4 -11 2 -60 6 -110 10 -49 4 -112 9 -140 11
-112 10 -201 18 -350 29 -49 4 -106 8 -125 10 -19 2 -69 6 -110 10 -41 3 -100
8 -130 11 -30 3 -77 7 -105 9 -27 1 -89 6 -138 10 -68 5 -88 4 -91 -7z"/>
<path d="M7429 4696 c-2 -2 -32 -7 -66 -11 -34 -3 -71 -8 -82 -10 -11 -2 -44
-6 -73 -9 -29 -4 -62 -8 -73 -10 -11 -2 -45 -7 -75 -11 -30 -3 -66 -8 -80 -10
-14 -2 -45 -6 -70 -9 -92 -13 -85 -6 -83 -77 0 -35 4 -82 7 -104 3 -22 8 -62
11 -90 3 -27 8 -61 11 -75 3 -14 7 -46 9 -72 2 -26 7 -59 10 -75 5 -28 20
-135 31 -223 6 -48 10 -75 18 -130 3 -19 8 -57 11 -85 3 -27 8 -63 10 -80 6
-40 23 -191 29 -255 2 -19 4 -35 5 -35 14 0 20 -642 8 -775 -3 -41 -9 -111
-13 -154 -10 -125 -52 -200 -141 -252 -32 -20 -61 -27 -108 -30 -127 -6 -187
41 -269 211 -84 173 -127 312 -160 520 -9 55 -18 111 -21 125 -5 26 -13 81
-19 127 -5 34 -16 109 -21 143 -2 14 -6 39 -9 55 -2 17 -7 49 -11 73 -4 23 -8
52 -10 65 -12 89 -17 124 -20 137 -2 8 -7 41 -10 73 -4 32 -9 68 -11 80 -11
51 -14 64 -18 107 -4 39 -29 210 -40 280 -3 14 -8 48 -11 75 -9 70 -13 96 -19
130 -2 17 -8 59 -12 95 -4 36 -9 68 -10 73 -1 4 -2 12 -3 18 -1 9 -91 7 -161
-5 -14 -3 -47 -7 -75 -11 -27 -3 -57 -8 -65 -10 -8 -2 -42 -6 -75 -10 -75 -8
-107 -12 -170 -21 -27 -4 -56 -6 -64 -5 -11 2 -12 -11 -7 -66 4 -37 8 -79 11
-93 2 -14 6 -47 10 -75 3 -27 8 -63 10 -80 3 -16 7 -52 11 -80 6 -59 11 -94
18 -155 3 -25 8 -65 11 -90 6 -47 14 -107 20 -150 2 -14 6 -50 10 -80 7 -70
12 -108 24 -195 6 -38 13 -88 16 -110 6 -49 16 -122 20 -155 2 -14 6 -45 9
-70 3 -25 8 -56 10 -70 5 -24 15 -86 22 -140 1 -14 13 -83 25 -155 12 -71 23
-141 25 -155 1 -14 3 -26 4 -27 2 -2 3 -6 4 -10 46 -176 136 -398 209 -518 47
-76 111 -167 145 -206 91 -103 265 -208 385 -233 7 -2 21 -7 32 -12 25 -11
309 -12 385 -1 70 10 191 41 255 66 61 23 169 81 173 93 2 4 9 8 15 8 16 1
126 104 170 160 50 64 123 216 141 295 2 6 8 30 15 55 7 25 15 54 18 65 20 90
23 108 29 145 3 19 6 46 8 60 1 14 5 30 7 35 6 12 3 344 -4 425 -3 30 -8 82
-11 115 -4 33 -9 81 -11 108 -3 26 -8 71 -11 100 -3 28 -8 72 -9 97 -2 25 -4
45 -5 45 -1 0 -3 18 -5 40 -1 22 -4 40 -4 40 -1 0 -4 18 -6 40 -10 91 -25 225
-30 255 -2 14 -7 50 -11 80 -3 30 -7 66 -9 80 -2 14 -6 54 -10 90 -3 36 -8 72
-11 81 -2 8 -7 42 -10 75 -3 32 -8 73 -9 89 -2 17 -4 30 -5 30 -1 0 -3 20 -5
45 -4 52 -13 124 -20 160 -3 14 -7 53 -10 87 -2 35 -10 75 -17 90 -12 25 -29
38 -39 29z"/>
</g>
</svg>
