<svg id="person_black_24dp_2_" data-name="cart" xmlns="http://www.w3.org/2000/svg" width="30" height="30" viewBox="0 0 30 30">
  <path id="Tracé_6032" data-name="Tracé 6032" d="M0,0H24V24H0Z" fill="none"/>
  <path id="shopping_cart_24dp_FILL0_wght400_GRAD0_opsz24" d="M45.705-861a1.832,1.832,0,0,1-1.343-.558A1.829,1.829,0,0,1,43.8-862.9a1.829,1.829,0,0,1,.559-1.342,1.832,1.832,0,0,1,1.343-.558,1.832,1.832,0,0,1,1.343.558,1.829,1.829,0,0,1,.559,1.342,1.829,1.829,0,0,1-.559,1.342A1.832,1.832,0,0,1,45.705-861Zm9.509,0a1.832,1.832,0,0,1-1.343-.558,1.829,1.829,0,0,1-.559-1.342,1.829,1.829,0,0,1,.559-1.342,1.832,1.832,0,0,1,1.343-.558,1.832,1.832,0,0,1,1.343.558,1.829,1.829,0,0,1,.559,1.342,1.829,1.829,0,0,1-.559,1.342A1.832,1.832,0,0,1,55.214-861ZM44.9-876.2l2.282,4.75h6.656l2.615-4.75Zm-.9-1.9H58.019a.91.91,0,0,1,.832.487.957.957,0,0,1,.024.986l-3.376,6.08a1.9,1.9,0,0,1-.7.736,1.85,1.85,0,0,1-.963.261H46.751l-1.046,1.9H57.116v1.9H45.705a1.761,1.761,0,0,1-1.616-.938,1.794,1.794,0,0,1-.048-1.864l1.284-2.328L41.9-878.1H40V-880h3.09Zm3.185,6.65h0Z" transform="translate(-35 885)" fill="#fff"/>
</svg>
