<svg id="Groupe_7661" data-name="Groupe 7661" xmlns="http://www.w3.org/2000/svg" width="52" height="52" viewBox="0 0 52 52">
  <path id="Tracé_1709" data-name="Tracé 1709" d="M0,0H52V52H0Z" fill="none"/>
  <path id="Tracé_13610" data-name="Tracé 13610" d="M36.11,13.709h0L24.424,3.464a5.843,5.843,0,0,0-7.791,0L4.948,13.709A5.843,5.843,0,0,0,3,18.11V35.133a5.843,5.843,0,0,0,5.843,5.843H32.215a5.843,5.843,0,0,0,5.843-5.843V18.091a5.843,5.843,0,0,0-1.948-4.382ZM24.424,37.081H16.634V27.342a1.948,1.948,0,0,1,1.948-1.948h3.9a1.948,1.948,0,0,1,1.948,1.948Zm9.738-1.948a1.948,1.948,0,0,1-1.948,1.948h-3.9V27.342A5.843,5.843,0,0,0,22.477,21.5h-3.9a5.843,5.843,0,0,0-5.843,5.843v9.738h-3.9A1.948,1.948,0,0,1,6.9,35.133V18.091a1.948,1.948,0,0,1,.662-1.461L19.244,6.4a1.948,1.948,0,0,1,2.571,0L33.5,16.63a1.948,1.948,0,0,1,.662,1.461Z" transform="translate(5.472 4.524)" fill="#fdc448"/>
</svg>
