<svg id="Groupe_7662" data-name="Groupe 7662" xmlns="http://www.w3.org/2000/svg" width="52" height="52" viewBox="0 0 52 52">
  <path id="Tracé_1709" data-name="Tracé 1709" d="M0,0H52V52H0Z" fill="none"/>
  <path id="Tracé_13609" data-name="Tracé 13609" d="M33.25,11.75H27.4V9.8a7.8,7.8,0,1,0-15.6,0v1.95H5.95A1.95,1.95,0,0,0,4,13.7V35.15A5.85,5.85,0,0,0,9.85,41h19.5a5.85,5.85,0,0,0,5.85-5.85V13.7A1.95,1.95,0,0,0,33.25,11.75ZM15.7,9.8a3.9,3.9,0,1,1,7.8,0v1.95H15.7ZM31.3,35.15a1.95,1.95,0,0,1-1.95,1.95H9.85A1.95,1.95,0,0,1,7.9,35.15V15.65h3.9V17.6a1.95,1.95,0,1,0,3.9,0V15.65h7.8V17.6a1.95,1.95,0,1,0,3.9,0V15.65h3.9Z" transform="translate(6.833 4.5)" fill="#fdc448"/>
</svg>
