<svg id="Groupe_7660" data-name="Groupe 7660" xmlns="http://www.w3.org/2000/svg" width="52" height="52" viewBox="0 0 52 52">
  <path id="Tracé_1709" data-name="Tracé 1709" d="M0,0H52V52H0Z" fill="none"/>
  <path id="Tracé_1710" data-name="Tracé 1710" d="M21.333,8.333A4.333,4.333,0,1,1,17,12.667a4.346,4.346,0,0,1,4.333-4.333m0,19.5c5.85,0,12.567,2.8,13,4.333v2.167h-26V32.188c.433-1.56,7.15-4.355,13-4.355M21.333,4A8.667,8.667,0,1,0,30,12.667,8.664,8.664,0,0,0,21.333,4Zm0,19.5C15.548,23.5,4,26.4,4,32.167v6.5H38.667v-6.5C38.667,26.4,27.118,23.5,21.333,23.5Z" transform="translate(4.667 4.667)" fill="#fdc448"/>
</svg>
