<svg id="Groupe_7654" data-name="Groupe 7654" xmlns="http://www.w3.org/2000/svg" width="24" height="24" viewBox="0 0 24 24">
  <path id="Tracé_1709" data-name="Tracé 1709" d="M0,0H24V24H0Z" fill="none"/>
  <path id="Tracé_13610" data-name="Tracé 13610" d="M18.282,7.391h0L12.888,2.663a2.7,2.7,0,0,0-3.6,0L3.9,7.391A2.7,2.7,0,0,0,3,9.423v7.857a2.7,2.7,0,0,0,2.7,2.7H16.484a2.7,2.7,0,0,0,2.7-2.7V9.414a2.7,2.7,0,0,0-.9-2.023ZM12.888,18.178h-3.6V13.684a.9.9,0,0,1,.9-.9h1.8a.9.9,0,0,1,.9.9Zm4.495-.9a.9.9,0,0,1-.9.9h-1.8V13.684a2.7,2.7,0,0,0-2.7-2.7h-1.8a2.7,2.7,0,0,0-2.7,2.7v4.495H5.7a.9.9,0,0,1-.9-.9V9.414A.9.9,0,0,1,5.1,8.74L10.5,4.02a.9.9,0,0,1,1.187,0L17.077,8.74a.9.9,0,0,1,.306.674Z" transform="translate(0.91 1.024)" fill="#fdc448"/>
</svg>
