<svg id="Groupe_7655" data-name="Groupe 7655" xmlns="http://www.w3.org/2000/svg" width="24" height="24" viewBox="0 0 24 24">
  <path id="Tracé_1709" data-name="Tracé 1709" d="M0,0H24V24H0Z" fill="none"/>
  <path id="Tracé_13609" data-name="Tracé 13609" d="M17.5,6.5H14.8V5.6a3.6,3.6,0,1,0-7.2,0v.9H4.9a.9.9,0,0,0-.9.9v9.9A2.7,2.7,0,0,0,6.7,20h9a2.7,2.7,0,0,0,2.7-2.7V7.4A.9.9,0,0,0,17.5,6.5ZM9.4,5.6a1.8,1.8,0,1,1,3.6,0v.9H9.4Zm7.2,11.7a.9.9,0,0,1-.9.9h-9a.9.9,0,0,1-.9-.9v-9H7.6v.9a.9.9,0,1,0,1.8,0V8.3H13v.9a.9.9,0,1,0,1.8,0V8.3h1.8Z" transform="translate(1 1)" fill="#fdc448"/>
</svg>
