<svg xmlns="http://www.w3.org/2000/svg" width="20.194" height="17.097" viewBox="0 0 20.194 17.097">
  <g id="Groupe_7420" data-name="Groupe 7420" transform="translate(-808.68 -533.452)" opacity="0.305">
    <g id="Groupe_7417" data-name="Groupe 7417" transform="translate(808.68 456.479)">
      <path id="Tracé_13282" data-name="Tracé 13282" d="M112.889,118.426a2.545,2.545,0,1,0,2.545,2.545A2.548,2.548,0,0,0,112.889,118.426Zm0,3.818a1.273,1.273,0,1,1,1.273-1.273A1.274,1.274,0,0,1,112.889,122.245Zm-8.7-3.818a2.545,2.545,0,1,0,2.545,2.545A2.548,2.548,0,0,0,104.192,118.426Zm0,3.818a1.273,1.273,0,1,1,1.273-1.273A1.274,1.274,0,0,1,104.192,122.245Zm10.411-11.1a.637.637,0,0,0-.569-.35h-3.352v1.273h2.959l1.733,3.447,1.137-.572Z" transform="translate(-97.638 -30.996)" fill="#1c1c3e"/>
      <path id="Tracé_13283" data-name="Tracé 13283" d="M8.527,89.36h4.815v1.273H8.527Zm-3.882,0H2.439a.636.636,0,1,0,0,1.273H4.645a.636.636,0,1,0,0-1.273ZM20.06,85.47l-1.252-1.612a.635.635,0,0,0-.5-.246H13.682V79.157a.636.636,0,0,0-.636-.636H2.439a.636.636,0,0,0,0,1.273h9.97v4.455a.636.636,0,0,0,.636.636h4.949l.927,1.194V89.36H17.161a.636.636,0,0,0,0,1.273h2.4A.636.636,0,0,0,20.194,90V85.86A.637.637,0,0,0,20.06,85.47ZM4.6,86.136H1.676a.636.636,0,1,0,0,1.273H4.6a.636.636,0,0,0,0-1.273Zm1.464-2.5H.636a.636.636,0,0,0,0,1.273h5.43a.636.636,0,0,0,0-1.273Z" transform="translate(0 0)" fill="#1c1c3e"/>
      <path id="Tracé_13284" data-name="Tracé 13284" d="M32.42,144.672h-5.43a.636.636,0,1,0,0,1.273h5.43a.636.636,0,1,0,0-1.273Z" transform="translate(-25.314 -63.542)" fill="#1c1c3e"/>
    </g>
    <line id="Ligne_111" data-name="Ligne 111" x1="11" y2="15" transform="translate(814.5 534.5)" fill="none" stroke="#1c1c3e" stroke-linecap="round" stroke-width="1.5"/>
  </g>
</svg>
