<svg xmlns="http://www.w3.org/2000/svg" width="15.167" height="14" viewBox="0 0 15.167 14">
  <path id="Tracé_13286" data-name="Tracé 13286" d="M18.167,9.25a.589.589,0,0,0-.075-.287L15.457,4.3a.583.583,0,0,0-.508-.3H6.218a.583.583,0,0,0-.508.3L3.075,8.963A.589.589,0,0,0,3,9.25a2.326,2.326,0,0,0,1.167,2.009v5.574A1.167,1.167,0,0,0,5.333,18h3.43A1.167,1.167,0,0,0,9.93,16.833V15.254a.711.711,0,0,1,.583-.722.655.655,0,0,1,.723.65v1.651A1.167,1.167,0,0,0,12.4,18h3.43A1.167,1.167,0,0,0,17,16.833V11.259A2.326,2.326,0,0,0,18.167,9.25Zm-1.175.139a1.167,1.167,0,0,1-2.325-.139.532.532,0,0,0-.016-.081.5.5,0,0,0-.006-.078L13.536,5.167h1.073ZM8.843,5.167H10V9.25a1.167,1.167,0,0,1-2.327.058Zm2.323,0h1.157l1.171,4.142a1.167,1.167,0,0,1-2.327-.058Zm-4.608,0H7.631L6.523,9.091a.5.5,0,0,0-.006.078.532.532,0,0,0-.017.08,1.167,1.167,0,0,1-2.325.139Zm9.275,11.667H12.4V15.182A1.82,1.82,0,0,0,10.4,13.374a1.876,1.876,0,0,0-1.633,1.882v1.577H5.333v-5.25a2.328,2.328,0,0,0,1.75-.792,2.316,2.316,0,0,0,3.5-.015,2.316,2.316,0,0,0,3.5.015,2.328,2.328,0,0,0,1.75.792Z" transform="translate(-3 -4)" fill="#6541dd"/>
</svg>
