<svg xmlns="http://www.w3.org/2000/svg" width="30" height="30" viewBox="0 0 30 30">
  <g id="Groupe_7473" data-name="Groupe 7473" transform="translate(-930.798 -172.749)">
    <path id="Tracé_13292" data-name="Tracé 13292" d="M29.128,16.29a4.881,4.881,0,0,0-2.885-7.534,4.9,4.9,0,0,0-1.5-5.172,4.782,4.782,0,0,0-5.3-.6,4.795,4.795,0,0,0-8.881,0,4.782,4.782,0,0,0-5.3.6,4.848,4.848,0,0,0-1.7,3.3,4.908,4.908,0,0,0,.2,1.871,4.885,4.885,0,0,0-1.543,8.838,4.92,4.92,0,0,0-.336,5.377,4.793,4.793,0,0,0,4.78,2.393,4.867,4.867,0,0,0,3.162,4.341A4.8,4.8,0,0,0,15,28.438a4.807,4.807,0,0,0,1.5,1.105,4.746,4.746,0,0,0,3.681.163A4.8,4.8,0,0,0,22.9,27.191a4.9,4.9,0,0,0,.448-1.826,4.739,4.739,0,0,0,.6.039,4.823,4.823,0,0,0,4.174-2.431,4.915,4.915,0,0,0-.336-5.378,4.831,4.831,0,0,0,1.339-1.3" transform="translate(930.798 172.748)" fill="#6541dd"/>
    <g id="instagram-svgrepo-com" transform="translate(938 179.804)">
      <path id="Tracé_13291" data-name="Tracé 13291" d="M9.818,13.636A3.818,3.818,0,1,0,6,9.818,3.818,3.818,0,0,0,9.818,13.636Zm0-1.273A2.545,2.545,0,1,0,7.273,9.818,2.545,2.545,0,0,0,9.818,12.364Z" transform="translate(-1.818 -1.818)" fill="#fff" fill-rule="evenodd"/>
      <path id="Tracé_13292-2" data-name="Tracé 13292" d="M17.636,5a.636.636,0,1,0,.636.636A.636.636,0,0,0,17.636,5Z" transform="translate(-5.818 -1.455)" fill="#fff"/>
      <path id="Tracé_13293" data-name="Tracé 13293" d="M1.416,3.085C1,3.9,1,4.971,1,7.109V8.891c0,2.138,0,3.208.416,4.024a3.818,3.818,0,0,0,1.669,1.669C3.9,15,4.971,15,7.109,15H8.891c2.138,0,3.208,0,4.024-.416a3.818,3.818,0,0,0,1.669-1.669C15,12.1,15,11.029,15,8.891V7.109c0-2.138,0-3.208-.416-4.024a3.818,3.818,0,0,0-1.669-1.669C12.1,1,11.029,1,8.891,1H7.109C4.971,1,3.9,1,3.085,1.416A3.818,3.818,0,0,0,1.416,3.085Zm7.475-.812H7.109c-1.09,0-1.831,0-2.4.048a2.747,2.747,0,0,0-1.042.23A2.546,2.546,0,0,0,2.55,3.663,2.747,2.747,0,0,0,2.321,4.7c-.047.573-.048,1.314-.048,2.4V8.891c0,1.09,0,1.831.048,2.4a2.747,2.747,0,0,0,.23,1.042A2.546,2.546,0,0,0,3.663,13.45a2.746,2.746,0,0,0,1.042.23c.573.047,1.314.048,2.4.048H8.891c1.09,0,1.831,0,2.4-.048a2.746,2.746,0,0,0,1.042-.23,2.546,2.546,0,0,0,1.112-1.112,2.746,2.746,0,0,0,.23-1.042c.047-.573.048-1.314.048-2.4V7.109c0-1.09,0-1.831-.048-2.4a2.746,2.746,0,0,0-.23-1.042A2.546,2.546,0,0,0,12.337,2.55a2.747,2.747,0,0,0-1.042-.23C10.722,2.274,9.981,2.273,8.891,2.273Z" fill="#fff" fill-rule="evenodd"/>
    </g>
  </g>
</svg>
