<svg xmlns="http://www.w3.org/2000/svg" width="42" height="42" viewBox="0 0 42 42">
  <g id="Layer_2" data-name="Layer 2" transform="translate(-2 -2)">
    <path id="Tracé_13533" data-name="Tracé 13533" d="M23,2A21,21,0,1,0,44,23,21,21,0,0,0,23,2Zm0,38.5A17.5,17.5,0,1,1,40.5,23,17.5,17.5,0,0,1,23,40.5Z" fill="#ffa83e"/>
    <path id="Tracé_13534" data-name="Tracé 13534" d="M9.275,11.982a1.75,1.75,0,0,0-1.75,1.75v11.9a1.75,1.75,0,0,0,3.5,0v-11.9A1.75,1.75,0,0,0,9.275,11.982Zm0-7.175A1.855,1.855,0,0,0,7.49,6.627v.28A1.645,1.645,0,0,0,9.275,8.552a1.82,1.82,0,0,0,1.75-1.75v-.42a1.575,1.575,0,0,0-1.75-1.575Z" transform="translate(13.725 6.993)" fill="#ffa83e"/>
  </g>
</svg>
