<svg xmlns="http://www.w3.org/2000/svg" width="30" height="30" viewBox="0 0 30 30">
  <path id="Tracé_13291" data-name="Tracé 13291" d="M29.128,16.29a4.881,4.881,0,0,0-2.885-7.534,4.9,4.9,0,0,0-1.5-5.172,4.782,4.782,0,0,0-5.3-.6,4.795,4.795,0,0,0-8.881,0,4.782,4.782,0,0,0-5.3.6,4.848,4.848,0,0,0-1.7,3.3,4.908,4.908,0,0,0,.2,1.871,4.885,4.885,0,0,0-1.543,8.838,4.92,4.92,0,0,0-.336,5.377,4.793,4.793,0,0,0,4.78,2.393,4.867,4.867,0,0,0,3.162,4.341A4.8,4.8,0,0,0,15,28.438a4.807,4.807,0,0,0,1.5,1.105,4.746,4.746,0,0,0,3.681.163A4.8,4.8,0,0,0,22.9,27.191a4.9,4.9,0,0,0,.448-1.826,4.739,4.739,0,0,0,.6.039,4.823,4.823,0,0,0,4.174-2.431,4.915,4.915,0,0,0-.336-5.378,4.831,4.831,0,0,0,1.339-1.3" transform="translate(0 -0.001)" fill="#6541dd"/>
</svg>
