<svg xmlns="http://www.w3.org/2000/svg" xmlns:xlink="http://www.w3.org/1999/xlink" width="72.754" height="54" viewBox="0 0 72.754 54">
  <defs>
    <clipPath id="clip-path">
      <rect id="Rectangle_1754" data-name="Rectangle 1754" width="72.754" height="54" fill="none"/>
    </clipPath>
  </defs>
  <g id="Groupe_7370" data-name="Groupe 7370" transform="translate(0 0)">
    <g id="Groupe_7369" data-name="Groupe 7369" transform="translate(0 0)" clip-path="url(#clip-path)">
      <path id="Tracé_13243" data-name="Tracé 13243" d="M42.658,33.175l0,0c0-.018,0-.036-.006-.053,0,.016,0,.035,0,.051" transform="translate(-6.483 -5.035)" fill="#008484"/>
      <path id="Tracé_13244" data-name="Tracé 13244" d="M46.549,30.371a6.111,6.111,0,0,0-.851-2.81c-.148-.159-.241-.264-.338-.363a2.466,2.466,0,0,0-3.655.009,4.792,4.792,0,0,0-.85,1.345,7.455,7.455,0,0,0-.435,3.758A6.158,6.158,0,0,0,41.215,35a2.614,2.614,0,0,0,3.1,1.2,2.8,2.8,0,0,0,1.81-1.916,9.118,9.118,0,0,0,.427-3.914m-1.981,2.89a3.021,3.021,0,0,1-.31.735c-.432.715-1.119.711-1.493-.028a6.691,6.691,0,0,1-.459-4.02,2.465,2.465,0,0,1,.72-1.65c.617-.419,1.123.053,1.413.572a8.246,8.246,0,0,1,.4,2.434,6.4,6.4,0,0,1-.275,1.956" transform="translate(-6.135 -4.012)" fill="#4954a7"/>
      <path id="Tracé_13245" data-name="Tracé 13245" d="M35.713,26.86c-.092.015-.207.192-.221.307-.067.54-.1,1.085-.151,1.627q-.167,1.9-.332,3.8l-.077.011-1.776-5.437-1.753.2c.913,2.671,1.814,5.306,2.72,7.957.671-.077,1.306-.162,1.943-.216.268-.023.358-.114.385-.39.2-2.115.43-4.228.649-6.342.057-.55.111-1.1.172-1.707-.563.064-1.064.108-1.559.192" transform="translate(-4.773 -4.054)" fill="#4954a7"/>
      <path id="Tracé_13246" data-name="Tracé 13246" d="M54.168,27.18a.5.5,0,0,0-.016-.468,2.351,2.351,0,0,0-3.969.443,3.125,3.125,0,0,0,.4,3.138c.309.455.693.859,1.024,1.3a3.826,3.826,0,0,1,.5.8.729.729,0,0,1-.219.973,1.294,1.294,0,0,1-.956-.056,3.643,3.643,0,0,1-.8-.66l-1.163,1.18a3.355,3.355,0,0,0,1.723,1.388,2.443,2.443,0,0,0,3.161-1.293,2.982,2.982,0,0,0-.427-3.2c-.436-.6-.922-1.161-1.36-1.758-.338-.462-.351-.864-.091-1.119s.642-.191,1.1.178c.036.03.074.058.16.124.33-.332.659-.628.936-.967" transform="translate(-7.443 -3.924)" fill="#4954a7"/>
      <path id="Tracé_13247" data-name="Tracé 13247" d="M41.454,53.635a12.031,12.031,0,0,0,1.638,4,5.1,5.1,0,0,0,5.279,2.433c2.379-.253,4.225-1.352,4.941-3.572a11.869,11.869,0,0,0,.622-4.454c-.3-3.833-.849-7.646-1.3-11.466a2.4,2.4,0,0,0-.128-.388l-3.97.522c.019.294.021.541.053.784.349,2.722.791,5.435,1.021,8.167a30.429,30.429,0,0,1-.125,4.991,1.664,1.664,0,0,1-1.419,1.642c-.957.136-1.455-.526-1.77-1.235a10.867,10.867,0,0,1-.9-2.581c-.553-3.328-1.013-6.67-1.506-10.007-.053-.364-.1-.729-.15-1.144l-3.888.511c.526,3.995.944,7.916,1.6,11.8" transform="translate(-6.057 -6.108)" fill="#ffa83e"/>
      <path id="Tracé_13248" data-name="Tracé 13248" d="M58.99,34.059c1.247,2.56,2.522,5.108,3.718,7.691a2.248,2.248,0,0,1,.069,1.547c-1.035,2.9-2.147,5.773-3.23,8.656-.119.317-.213.644-.349,1.058,1.282-.07,2.407-.167,3.531-.176a1.016,1.016,0,0,0,1.124-.825c.484-1.478,1.057-2.927,1.669-4.594.84,1.628,1.548,3.044,2.306,4.435.147.27.48.622.728.622,1.273,0,2.546-.107,3.936-.181-.206-.436-.337-.733-.484-1.021-1.375-2.682-2.731-5.374-4.145-8.035a2.135,2.135,0,0,1-.143-1.955c.957-2.506,1.837-5.041,2.745-7.564.152-.422.3-.848.489-1.408a21.85,21.85,0,0,1-2.515.118A1.665,1.665,0,0,0,66.4,33.971c-.307,1.439-.865,2.824-1.378,4.433-.787-1.789-1.457-3.37-2.188-4.922a1.2,1.2,0,0,0-.788-.657c-1.118-.019-2.238.088-3.551.159.221.488.349.785.49,1.076" transform="translate(-8.892 -4.911)" fill="#ffa83e"/>
      <path id="Tracé_13249" data-name="Tracé 13249" d="M25,58.345l8.483.7c.088-1.07.17-2.062.262-3.162l-4.775-.4c.141-1.7.272-3.291.409-4.938.83.069,1.582.165,2.336.173.238,0,.664-.2.689-.364.138-.885.179-1.786.262-2.789l-3.059-.253c.118-1.43.227-2.745.347-4.191l4.815.4c.1-1.211.19-2.29.282-3.4l-8.484-.7Q25.776,48.947,25,58.345" transform="translate(-3.8 -5.993)" fill="#ffa83e"/>
      <path id="Tracé_13250" data-name="Tracé 13250" d="M18.021,32.736c-.577,3.707-1.141,7.414-1.74,11.117a12.38,12.38,0,0,1-.589,2.307c-.269.731-.706,1.425-1.66,1.269-1-.163-1.17-.972-1.221-1.8-.032-.522.009-1.046.02-1.622l-3.187-.5c-.064.972-.186,1.857-.169,2.741a4.705,4.705,0,0,0,3.849,4.877c2.606.572,4.356-.3,5.575-2.8a5.911,5.911,0,0,0,.56-1.484c.858-4.763,1.686-9.532,2.517-14.3a1.013,1.013,0,0,0-.071-.323l-3.713-.577-.17,1.095" transform="translate(-1.44 -4.809)" fill="#ffa83e"/>
      <path id="Tracé_13251" data-name="Tracé 13251" d="M48.482,19.407q-1.726-6.234-3.467-12.464c-.065-.235-.3-.6-.457-.6-1.269.007-2.538.086-3.819.144C39.816,11.5,38.9,16.43,37.984,21.42l2.871-.131c.22-1.189.442-2.38.667-3.6.976-.044,1.888-.035,2.785-.142.667-.08.9.192,1.034.783.21.922.489,1.827.734,2.721l2.809-.127c-.142-.537-.267-1.029-.4-1.518m-6.495-4.461c.3-1.727.589-3.4.879-5.072l.15-.008c.445,1.625.89,3.25,1.361,4.971l-2.391.109" transform="translate(-5.773 -0.964)" fill="#37b798"/>
      <path id="Tracé_13252" data-name="Tracé 13252" d="M20.671,14.023V9.872h2.537V7.224h-2.54V3.684h4.1V.9H17.512V16.641h7.27V14.023Z" transform="translate(-2.662 -0.137)" fill="#37b798"/>
      <path id="Tracé_13253" data-name="Tracé 13253" d="M68.508,11.739l2.319-.29c-.087-.7-.165-1.325-.254-2.026l-2.322.291-.338-2.707,3.75-.469L71.4,4.408l-6.636.83c.5,4.036,1,8.031,1.506,12.038l6.647-.831c-.081-.656-.159-1.272-.25-2l-3.759.47c-.135-1.083-.262-2.094-.4-3.174" transform="translate(-9.844 -0.67)" fill="#37b798"/>
      <path id="Tracé_13254" data-name="Tracé 13254" d="M83.3,8.731a1.01,1.01,0,0,0,.15-.939A4.794,4.794,0,0,0,75.457,7.2a6.3,6.3,0,0,0-.343,6.579c.464,1.017,1.112,1.947,1.631,2.941a4.547,4.547,0,0,1,.734,1.844,2.632,2.632,0,0,1-.734,1.82c-.586.512-1.362.129-1.894-.382-.5-.481-.915-1.052-1.4-1.624L70.724,20.36a6.767,6.767,0,0,0,2.909,3.29,4.958,4.958,0,0,0,6.954-1.655,5.719,5.719,0,0,0,.367-5.772c-.577-1.281-1.336-2.48-1.978-3.735a6.02,6.02,0,0,1-.735-1.852,1.6,1.6,0,0,1,.55-1.289,1.674,1.674,0,0,1,1.329.064,4.387,4.387,0,0,1,1.041.915c.715-.52,1.47-1.007,2.137-1.594" transform="translate(-10.75 -0.81)" fill="#37b798"/>
      <path id="Tracé_13255" data-name="Tracé 13255" d="M58.35,14.048c.228,1.933.441,3.768.6,5.275l3.135-.336C61.625,14.672,60.75,7.73,60.282,3.373l2.97-.319c-.114-1.072-.219-2.045-.327-3.055L53.812.977c.112,1.042.219,2.034.335,3.125l3.008-.322c.3,2.813.774,6.709,1.195,10.268" transform="translate(-8.179 0)" fill="#37b798"/>
      <path id="Tracé_13256" data-name="Tracé 13256" d="M34.273,13.364c.225.007.63-.177.656-.326.147-.829.2-1.675.3-2.617l-2.874-.3c.138-1.342.265-2.576.406-3.932l4.527.467c.117-1.135.221-2.148.33-3.2l-7.975-.823q-.922,8.929-1.834,17.767l3.439.355c.262-2.541.517-5.014.785-7.61.827.086,1.533.191,2.241.213" transform="translate(-4.227 -0.401)" fill="#37b798"/>
      <path id="Tracé_13257" data-name="Tracé 13257" d="M51.93,10.547c.36,3.476.717,6.922,1.074,10.381l2.892-.3c-.36-3.47-.715-6.9-1.075-10.381l-2.891.3" transform="translate(-7.893 -1.558)" fill="#37b798"/>
      <path id="Tracé_13258" data-name="Tracé 13258" d="M51.46,6.3c.09.871.18,1.735.27,2.6l2.891-.3c-.09-.87-.179-1.73-.27-2.6l-2.891.3" transform="translate(-7.822 -0.912)" fill="#37b798"/>
      <path id="Tracé_13259" data-name="Tracé 13259" d="M10.582,15.469a.922.922,0,0,1,0-1.491,6.635,6.635,0,0,0,1.633-3.942c.272-2.884-1-4.88-3.564-5.625C5.781,3.58,2.922,4.12,0,4.579c.846,6.447,1.681,12.808,2.519,19.2l4.069-.533C6.319,21.19,6.057,19.2,5.8,17.2l1.01-.333A15.3,15.3,0,0,0,12.9,22.8l2.084-2.764c-1.429-1.485-2.909-3.031-4.4-4.569m-2.917-4.16a1.183,1.183,0,0,1-1.107-.51.094.094,0,0,0-.128-.026h0a.092.092,0,0,0-.038.109A4.616,4.616,0,0,0,7.432,12.64c.064.076-.032.179-.143.152a2.433,2.433,0,0,0-1.709.2c-.1.052-.22-.026-.175-.114a4.621,4.621,0,0,0,.612-1.951.1.1,0,0,0-.066-.1l-.018-.006a.094.094,0,0,0-.122.055,1.18,1.18,0,0,1-.964.76,1.2,1.2,0,0,1-1.315-1.044l0-.013,0-.02,0-.014a1.532,1.532,0,0,1,.161-.858A32.436,32.436,0,0,1,5.664,6.46l.013.012.008-.014A32.58,32.58,0,0,1,8.349,9.146a1.537,1.537,0,0,1,.353.8l0,.014,0,.021v.012a1.2,1.2,0,0,1-1.04,1.318" transform="translate(0 -0.605)" fill="#37b798"/>
    </g>
  </g>
</svg>
