<svg xmlns="http://www.w3.org/2000/svg" xmlns:xlink="http://www.w3.org/1999/xlink" width="28" height="28" viewBox="0 0 28 28">
  <defs>
    <clipPath id="clip-path">
      <rect id="Rectangle_417" data-name="Rectangle 417" width="22" height="18" fill="#00bb9d"/>
    </clipPath>
  </defs>
  <g id="Groupe_7517" data-name="Groupe 7517" transform="translate(-668 -1461)">
    <rect id="Rectangle_407" data-name="Rectangle 407" width="28" height="28" transform="translate(668 1461)" fill="none"/>
    <g id="Groupe_4683" data-name="Groupe 4683" transform="translate(671 1466)">
      <g id="Groupe_4676" data-name="Groupe 4676" clip-path="url(#clip-path)">
        <path id="Tracé_7426" data-name="Tracé 7426" d="M0,4.973A4.789,4.789,0,0,1,4.617,0H17.378A4.789,4.789,0,0,1,22,4.973v8.033A4.648,4.648,0,0,1,17.478,18H4.617A4.789,4.789,0,0,1,0,13.028ZM4.617,2A2.8,2.8,0,0,0,2,4.973v8.055A2.8,2.8,0,0,0,4.617,16H17.478A2.654,2.654,0,0,0,20,13.073v-8.1A2.8,2.8,0,0,0,17.378,2Z" fill="#00bb9d" fill-rule="evenodd"/>
        <path id="Tracé_7427" data-name="Tracé 7427" d="M4.13,4.507A1,1,0,0,1,5.493,4.13l4.679,2.652a1.68,1.68,0,0,0,1.656,0L16.507,4.13a1,1,0,1,1,.986,1.74L12.806,8.527l-.016.008a3.678,3.678,0,0,1-3.58,0l-.016-.008L4.507,5.87A1,1,0,0,1,4.13,4.507" fill="#00bb9d" fill-rule="evenodd"/>
      </g>
    </g>
  </g>
</svg>
