<svg xmlns="http://www.w3.org/2000/svg" xmlns:xlink="http://www.w3.org/1999/xlink" width="28" height="28" viewBox="0 0 28 28">
  <defs>
    <clipPath id="clip-path">
      <rect id="Rectangle_416" data-name="Rectangle 416" width="18" height="22" fill="#00bb9d"/>
    </clipPath>
  </defs>
  <g id="Groupe_7518" data-name="Groupe 7518" transform="translate(-668 -1461)">
    <rect id="Rectangle_407" data-name="Rectangle 407" width="28" height="28" transform="translate(668 1461)" fill="none"/>
    <g id="Groupe_4675" data-name="Groupe 4675" transform="translate(673 1464.01)">
      <g id="Groupe_4672" data-name="Groupe 4672" transform="translate(0 0)">
        <g id="Groupe_4671" data-name="Groupe 4671" clip-path="url(#clip-path)">
          <path id="Tracé_7422" data-name="Tracé 7422" d="M8.242,2.026A6.852,6.852,0,0,0,2.16,7.384c0,.015-.005.029-.008.043A6.412,6.412,0,0,0,3.285,12.6l5.08,7.078a.865.865,0,0,0,1.372-.034l5.053-7.04A6.648,6.648,0,0,0,16,8.81,7.055,7.055,0,0,0,8.242,2.026M8.06.034A9.055,9.055,0,0,1,18,8.778V8.8a8.648,8.648,0,0,1-1.571,4.952l-.01.014-5.076,7.071-.031.042a2.865,2.865,0,0,1-4.583-.046L1.653,13.758A8.412,8.412,0,0,1,.2,7.006,8.85,8.85,0,0,1,8.029.037l.031,0" transform="translate(0 0)" fill="#00bb9d" fill-rule="evenodd"/>
          <path id="Tracé_7423" data-name="Tracé 7423" d="M5.1,8.8A3.9,3.9,0,1,1,9,12.7,3.9,3.9,0,0,1,5.1,8.8M9,6.9a1.9,1.9,0,1,0,1.9,1.9A1.9,1.9,0,0,0,9,6.9" transform="translate(0 0)" fill="#00bb9d" fill-rule="evenodd"/>
          <path id="Tracé_7424" data-name="Tracé 7424" d="M5.1,8.8A3.9,3.9,0,1,1,9,12.7,3.9,3.9,0,0,1,5.1,8.8M9,6.9a1.9,1.9,0,1,0,1.9,1.9A1.9,1.9,0,0,0,9,6.9" transform="translate(0 0)" fill="#00bb9d" fill-rule="evenodd"/>
          <path id="Tracé_7425" data-name="Tracé 7425" d="M5.1,8.8A3.9,3.9,0,1,1,9,12.7,3.9,3.9,0,0,1,5.1,8.8M9,6.9a1.9,1.9,0,1,0,1.9,1.9A1.9,1.9,0,0,0,9,6.9" transform="translate(0 0)" fill="#00bb9d" fill-rule="evenodd"/>
        </g>
      </g>
    </g>
  </g>
</svg>
