<svg id="person_black_24dp_2_" data-name="person_black_24dp(2)" xmlns="http://www.w3.org/2000/svg" width="24" height="24" viewBox="0 0 24 24">
  <path id="Tracé_6032" data-name="Tracé 6032" d="M0,0H24V24H0Z" fill="none"/>
  <path id="Tracé_6033" data-name="Tracé 6033" d="M13,6.25A2.25,2.25,0,1,1,10.75,8.5,2.257,2.257,0,0,1,13,6.25M13,17.5c3.038,0,6.525,1.451,6.75,2.25H6.25c.259-.81,3.724-2.25,6.75-2.25M13,4a4.5,4.5,0,1,0,4.5,4.5A4.5,4.5,0,0,0,13,4Zm0,11.25c-3,0-9,1.508-9,4.5V22H22V19.75C22,16.758,16,15.25,13,15.25Z" transform="translate(-1 -1)" fill="#1c1e3c" stroke="#fff" stroke-width="0.2"/>
</svg>
